Coordinates
version=1
nRows=16
nColumns=36
inDegrees=yes

Units are S.I. units (second, meters, Newtons, ...)
If the header above contains a line with 'inDegrees', this indicates whether rotational values are in degrees (yes) or radians (no).

endheader
time	pelvis_tilt	pelvis_list	pelvis_rotation	pelvis_tx	pelvis_ty	pelvis_tz	hip_flexion_r	hip_adduction_r	hip_rotation_r	knee_angle_r	knee_angle_r_beta	ankle_angle_r	subtalar_angle_r	mtp_angle_r	hip_flexion_l	hip_adduction_l	hip_rotation_l	knee_angle_l	knee_angle_l_beta	ankle_angle_l	subtalar_angle_l	mtp_angle_l	lumbar_extension	lumbar_bending	lumbar_rotation	arm_flex_r	arm_add_r	arm_rot_r	elbow_flex_r	pro_sup_r	arm_flex_l	arm_add_l	arm_rot_l	elbow_flex_l	pro_sup_l
      2.47916670	    -12.53143192	      0.79645498	      5.99338405	      0.40233555	      1.05101223	     -0.06929753	     17.50606518	     -6.66886970	    -16.35615693	      4.46739556	      0.07797076	    -49.29093123	     -5.41898077	     -7.49999987	     18.35124376	     -4.61646114	     -6.35274075	      1.69652233	      0.02960990	    -45.97471007	      6.83755681	     -7.49999987	     -4.26399034	     -0.79628263	     -0.32240043	     69.01677565	    -16.81057431	     27.53797733	    129.12084846	     93.72287778	     75.30396788	    -25.07262964	     42.17106043	    127.73234744	     88.59169442
      2.48333330	    -12.90973077	      1.00693404	      5.92792632	      0.40315997	      1.05985842	     -0.07044018	     17.24004081	     -6.70924736	    -17.41766399	      2.33186544	      0.04069873	    -49.42823564	     -4.30248139	     -7.49999987	     18.42232112	     -4.31697641	     -5.57394050	      0.58489795	      0.01020839	    -46.85987976	      6.73064521	     -7.49999987	     -3.50420981	     -1.20620538	     -0.32283130	     67.80088730	    -16.69508052	     27.03958871	    129.25555800	     93.88980938	     74.53232004	    -25.11905526	     42.20012407	    127.67776252	     88.34243502
      2.48750000	    -13.38921794	      1.09616784	      5.71975033	      0.40492696	      1.07499299	     -0.06950670	     17.34731795	     -6.53525680	    -17.57707867	      0.95823964	      0.01672444	    -49.42550308	     -3.55020802	     -7.49999987	     18.85190046	     -4.25590450	     -4.51735289	      0.32735635	      0.00571345	    -47.06708510	      6.51560603	     -7.49999987	     -2.66496300	     -1.49753607	     -0.13057729	     66.39373138	    -16.67400635	     26.83718308	    129.49828925	     94.10888613	     73.26161889	    -25.23241024	     42.31464725	    127.75352062	     88.16977466
      2.49166670	    -13.88318095	      1.04650557	      5.24148187	      0.40563906	      1.08452456	     -0.06727642	     18.04437749	     -6.15186198	    -18.01445498	      0.44363190	      0.00774284	    -49.32270361	     -3.81428540	     -7.49999987	     19.21463302	     -4.43065471	     -4.63023470	      0.24782968	      0.00432544	    -46.50756338	      5.81577058	     -7.49999987	     -1.80777124	     -1.61393273	      0.32738087	     65.14690008	    -16.58412000	     26.80147024	    129.68216629	     94.06822972	     72.11233271	    -25.37292128	     42.47768287	    128.00561763	     88.13195292
      2.49583330	    -14.18138787	      1.18922557	      4.78277503	      0.40585873	      1.09559448	     -0.06644623	     18.48531651	     -5.97924370	    -18.73313130	      0.29151898	      0.00508797	    -49.17605461	     -3.95935647	     -7.49999987	     19.24732642	     -4.36342789	     -5.44778863	      0.22232685	      0.00388034	    -46.11742947	      4.92681336	     -7.49999987	     -1.16599807	     -1.96644224	      0.85462770	     63.89436770	    -16.58272192	     26.53298578	    129.74508707	     93.95402388	     71.07674947	    -25.49425958	     42.64607689	    128.33653464	     87.99704609
      2.50000000	    -14.32921144	      1.37459662	      4.43468833	      0.40840463	      1.10653193	     -0.06391066	     18.62227206	     -5.86974555	    -19.12580321	      0.22060719	      0.00385032	    -48.87086972	     -3.61327139	     -7.49999987	     18.99526810	     -4.32977741	     -6.64759238	      0.21019846	      0.00366866	    -45.65647938	      4.27840692	     -7.49999987	     -0.72452214	     -2.29001574	      1.29286854	     62.83872275	    -16.28550838	     26.52691583	    129.85250396	     93.06609594	     70.36697868	    -25.71081121	     43.07381312	    128.80818108	     87.23780281
      2.50416670	    -14.40439148	      1.55880132	      3.99113083	      0.40838138	      1.11453018	     -0.06383704	     18.70360749	     -5.78090628	    -19.83237383	      0.19335034	      0.00337460	    -48.86314698	     -3.03726954	     -7.49999987	     18.63960042	     -4.29643441	     -7.76164147	      0.21413333	      0.00373733	    -45.55811452	      3.79499017	     -7.49999987	     -0.48832745	     -2.51623940	      1.76298462	     62.19008261	    -16.21901914	     26.71739725	    130.07903673	     91.70752583	     69.90660985	    -25.85720494	     43.44302609	    129.25904787	     86.16972112
      2.50833330	    -14.27381829	      1.72418255	      3.51967515	      0.41010328	      1.12473013	     -0.06331549	     18.48341144	     -5.71370066	    -20.87079598	      0.17665047	      0.00308313	    -48.71532760	     -2.16006027	     -7.49999987	     17.95099374	     -4.21871284	     -8.26090428	      0.22483156	      0.00392405	    -45.69804994	      3.84452127	     -7.49999987	     -0.49154311	     -2.75214937	      2.15203668	     61.37841381	    -16.11120586	     26.48724977	    130.31755023	     91.63354020	     69.52908328	    -25.97172835	     44.00948657	    129.88256992	     85.91753463
      2.51250000	    -14.30504507	      1.71200948	      2.93600584	      0.40998969	      1.13129447	     -0.06195678	     18.54915622	     -5.42132611	    -21.58071116	      0.17869808	      0.00311887	    -48.98635053	     -1.55331748	     -7.49999987	     17.42597493	     -4.40336304	     -8.30321808	      0.26419341	      0.00461104	    -46.06251759	      4.20452377	     -7.49999987	     -0.18075031	     -2.72487826	      2.58400615	     60.68631529	    -15.93102113	     26.61353915	    130.26228869	     90.01776714	     69.16609646	    -26.07655433	     44.52170895	    130.15111943	     84.65649786
      2.51666670	    -13.86658273	      1.58549268	      2.63171122	      0.41177275	      1.14260246	     -0.06209413	     17.94880213	     -5.18005698	    -22.11104409	      0.18179609	      0.00317294	    -49.06527227	     -0.47926068	     -7.49999987	     16.35176793	     -4.59675129	     -7.88274135	      0.34841173	      0.00608093	    -46.05794995	      4.30185848	     -7.49999987	     -0.58279453	     -2.65023324	      2.80320690	     59.99759434	    -15.97695102	     26.02473153	    130.68810736	     93.59385470	     69.11114786	    -25.98269142	     45.20105950	    130.18043610	     86.68333933
      2.52083330	    -13.37826226	      1.37100158	      2.34843493	      0.41317126	      1.15471253	     -0.06243867	     17.19419066	     -4.81499068	    -22.20241663	      0.20171446	      0.00352058	    -49.13892431	      0.26147370	     -7.49999987	     15.36850400	     -4.83012851	     -7.51672789	      0.49947120	      0.00871742	    -46.46268537	      4.73897962	     -7.49999987	     -1.01688585	     -2.38525470	      2.83676498	     59.17652212	    -15.90965613	     26.03797883	    130.89341502	     93.05451243	     68.58084761	    -26.02683932	     45.81091636	    130.11693096	     86.04940830
      2.52500000	    -12.91795255	      1.05105504	      2.22722344	      0.41434267	      1.16569917	     -0.06231622	     16.38510111	     -4.33379852	    -22.52928339	      0.23334906	      0.00407271	    -49.22440849	      0.78584446	     -7.49999987	     14.53031374	     -5.17325880	     -7.35178906	      0.73930951	      0.01290339	    -46.89633281	      4.98905423	     -7.49999987	     -1.51900598	     -1.97113480	      2.80130309	     58.48373673	    -15.85168888	     25.96782294	    131.20547595	     94.64491351	     67.82072604	    -26.26856712	     46.01605580	    130.53390197	     87.04947406
      2.52916670	    -12.43459430	      0.83399628	      2.16111897	      0.41559964	      1.17502043	     -0.06134851	     15.54679331	     -3.90315631	    -22.66681391	      0.28269115	      0.00493389	    -49.20090181	      0.92556889	     -7.49999987	     13.77696501	     -5.46595439	     -6.87935614	      1.15280376	      0.02012022	    -47.16140681	      5.16240027	     -7.49999987	     -2.07420445	     -1.77054133	      2.70880880	     57.77513775	    -15.70831311	     26.00942788	    131.80473700	     91.35826338	     67.32833801	    -26.62480328	     46.55047353	    131.10573525	     84.77844074
      2.53333330	    -12.09184641	      0.77055637	      2.28431999	      0.41663513	      1.18465845	     -0.06239056	     14.96259413	     -3.69357450	    -22.55601501	      0.33634069	      0.00587025	    -49.26097542	      1.00599234	     -7.49999987	     13.32007887	     -5.47296465	     -6.90580265	      1.64242304	      0.02866569	    -47.59879664	      4.49377244	     -7.49999987	     -2.57827804	     -1.74319434	      2.46163444	     56.97542959	    -15.55043761	     25.65987737	    132.36864944	     95.25669875	     67.05055049	    -26.89936701	     47.08129271	    131.48310460	     87.25541930
      2.53750000	    -11.80182706	      0.81517940	      2.35335915	      0.41581142	      1.19098026	     -0.06099271	     14.52589552	     -3.50135244	    -23.37633134	      0.44252817	      0.00772357	    -49.36571107	      0.43671057	     -7.49999987	     12.96934706	     -5.41109351	     -7.21071628	      2.23853830	      0.03906986	    -48.15769033	      3.68361877	     -7.49999987	     -3.09751733	     -1.93591331	      2.28748779	     56.57158903	    -15.38621502	     25.54753769	    132.90149039	     92.72555263	     67.27854821	    -27.29711676	     47.51316855	    131.82476777	     85.62463719
      2.54166670	    -11.54025384	      0.69588134	      2.55600070	      0.41690755	      1.19735913	     -0.06137076	     14.17382463	     -3.24736960	    -23.88548830	      0.58169847	      0.01015255	    -49.42503867	      0.41303613	     -7.49999987	     12.82011618	     -5.47896534	     -7.25972211	      2.91846383	      0.05093680	    -48.39550522	      2.70812783	     -7.49999987	     -3.53809230	     -1.78401415	      2.03729347	     56.51507490	    -15.20011624	     25.63804315	    133.19632675	     91.84105173	     67.60606987	    -27.61589119	     48.08012051	    132.09578318	     84.94126829
